<svg xmlns="http://www.w3.org/2000/svg" viewBox="0 0 200 200" width="200" height="200">
  <circle cx="100" cy="55" r="35" fill="#f4c89a" stroke="#333" stroke-width="2"/>
  <rect x="72" y="30" width="56" height="10" rx="5" fill="#222"/>
  <path d="M65 50 Q100 35 135 50 L135 60 Q100 48 65 60Z" fill="#222"/>
  <rect x="62" y="55" width="76" height="6" rx="2" fill="#222"/>
  <line x1="95" y1="48" x2="95" y2="52" stroke="#444" stroke-width="1.5"/>
  <line x1="105" y1="48" x2="105" y2="52" stroke="#444" stroke-width="1.5"/>
  <circle cx="95" cy="48" r="2" fill="#444"/>
  <circle cx="105" cy="48" r="2" fill="#444"/>
  <rect x="73" y="62" width="54" height="4" rx="2" fill="#333"/>
  <line x1="80" y1="62" x2="78" y2="66" stroke="#333" stroke-width="1.5"/>
  <line x1="86" y1="62" x2="84" y2="66" stroke="#333" stroke-width="1.5"/>
  <line x1="92" y1="62" x2="92" y2="66" stroke="#333" stroke-width="1.5"/>
  <line x1="98" y1="62" x2="98" y2="66" stroke="#333" stroke-width="1.5"/>
  <line x1="104" y1="62" x2="104" y2="66" stroke="#333" stroke-width="1.5"/>
  <line x1="110" y1="62" x2="112" y2="66" stroke="#333" stroke-width="1.5"/>
  <line x1="116" y1="62" x2="118" y2="66" stroke="#333" stroke-width="1.5"/>
  <line x1="122" y1="62" x2="124" y2="66" stroke="#333" stroke-width="1.5"/>
  <path d="M68 68 Q64 65 62 68 L58 76 Q60 80 65 80 L72 78Z" fill="#444"/>
  <path d="M132 68 Q136 65 138 68 L142 76 Q140 80 135 80 L128 78Z" fill="#444"/>
  <ellipse cx="100" cy="63" rx="10" ry="4" fill="#fff" opacity="0.6"/>
  <rect x="68" y="82" width="64" height="40" rx="8" fill="#e63946" stroke="#333" stroke-width="2"/>
  <rect x="75" y="90" width="50" height="6" rx="3" fill="#fff" opacity="0.3"/>
  <rect x="68" y="115" width="64" height="50" rx="5" fill="#1d3557" stroke="#333" stroke-width="2"/>
  <rect x="75" y="120" width="50" height="3" rx="1.5" fill="#fff" opacity="0.2"/>
  <rect x="68" y="128" width="50" height="3" rx="1.5" fill="#fff" opacity="0.2"/>
  <rect x="68" y="136" width="50" height="3" rx="1.5" fill="#fff" opacity="0.2"/>
  <rect x="68" y="144" width="50" height="3" rx="1.5" fill="#fff" opacity="0.2"/>
  <rect x="60" y="158" width="28" height="30" rx="6" fill="#f4c89a" stroke="#333" stroke-width="1.5"/>
  <rect x="112" y="158" width="28" height="30" rx="6" fill="#f4c89a" stroke="#333" stroke-width="1.5"/>
  <rect x="56" y="182" width="18" height="18" rx="4" fill="#333"/>
  <rect x="126" y="182" width="18" height="18" rx="4" fill="#333"/>
  <rect x="55" y="142" width="14" height="24" rx="4" fill="#f4c89a" stroke="#333" stroke-width="1"/>
  <rect x="131" y="142" width="14" height="24" rx="4" fill="#f4c89a" stroke="#333" stroke-width="1"/>
  <circle cx="47" cy="130" r="42" fill="none" stroke="#fff" stroke-width="3" stroke-dasharray="6 4" opacity="0.15"/>
  <circle cx="153" cy="130" r="42" fill="none" stroke="#fff" stroke-width="3" stroke-dasharray="6 4" opacity="0.15"/>
</svg>
